<svg width="24" height="24" viewBox="0 0 24 24" fill="none" xmlns="http://www.w3.org/2000/svg">
<path fill-rule="evenodd" clip-rule="evenodd" d="M21.4332 10.8334H22.4999C22.7147 10.8334 22.8888 10.6593 22.8888 10.4445V7.33337C22.8888 7.1186 22.7147 6.94449 22.4999 6.94449H18.8514L18.2221 5.68604V4.22226C18.2221 4.00749 18.048 3.83337 17.8333 3.83337H15.4999C15.2851 3.83337 15.111 4.00749 15.111 4.22226V5.77782C15.111 5.9926 15.2851 6.16671 15.4999 6.16671H17.5929L18.2221 7.42515V9.66671C18.2221 9.02238 17.6998 8.50004 17.0555 8.50004C16.4111 8.50004 15.8888 9.02238 15.8888 9.66671V8.88893C15.8888 8.67415 15.7147 8.50004 15.4999 8.50004H12.4366L11.2221 8.19632V1.88893C11.2221 1.02982 10.5257 0.333374 9.66658 0.333374H8.11103C7.25192 0.333374 6.55547 1.02982 6.55547 1.88893V6.16671H4.61103C3.9667 6.16671 3.44436 6.68904 3.44436 7.33337V8.50004H0.722141C0.564876 8.50007 0.423111 8.59482 0.362933 8.74012C0.302755 8.88542 0.33601 9.05265 0.447196 9.16387L1.33892 10.0556L0.447196 10.9473C0.33601 11.0585 0.302755 11.2258 0.362933 11.3711C0.423111 11.5164 0.564876 11.6111 0.722141 11.6112H4.61103C5.25536 11.6112 5.7777 11.0888 5.7777 10.4445V9.27782H6.55547V13.1667H5.38881C4.0368 13.1683 2.89084 14.1619 2.6977 15.5H1.49992C1.28514 15.5 1.11103 15.6742 1.11103 15.8889V17.4445C1.11103 17.6593 1.28514 17.8334 1.49992 17.8334H2.66659V18.6112H0.722141C0.507363 18.6112 0.333252 18.7853 0.333252 19V20.5556C0.333252 20.7704 0.507363 20.9445 0.722141 20.9445H4.99992C4.99992 22.4479 6.2187 23.6667 7.72214 23.6667C9.22558 23.6667 10.4444 22.4479 10.4444 20.9445H17.4444C17.4444 22.4479 18.6631 23.6667 20.1666 23.6667C21.67 23.6667 22.8888 22.4479 22.8888 20.9445H23.2777C23.3963 20.9446 23.5084 20.8905 23.5822 20.7978C23.6561 20.705 23.6835 20.5836 23.6569 20.4681L21.4332 10.8334ZM15.8888 9.66671C15.8888 10.311 16.4111 10.8334 17.0555 10.8334C17.6998 10.8334 18.2221 10.311 18.2221 9.66671V17.8334H17.0555V17.4445C17.0555 16.8002 16.5331 16.2778 15.8888 16.2778V12C15.8888 11.7853 15.7147 11.6112 15.4999 11.6112H11.2221V10.5538L12.2943 10.8217C12.3252 10.8295 12.3569 10.8334 12.3888 10.8334H15.4999C15.7147 10.8334 15.8888 10.6593 15.8888 10.4445V9.66671ZM17.4444 5.38893H15.8888V4.61115H17.4444V5.38893ZM2.66659 20.1667V19.3889H1.11103V20.1667H2.66659ZM2.66659 17.0556H1.88881V16.2778H2.66659V17.0556ZM22.111 7.72226H21.3333V10.0556H22.111V7.72226ZM18.9999 7.72226H20.5555V10.0556H18.9999V7.72226ZM16.2777 17.4445C16.2777 17.2297 16.1036 17.0556 15.8888 17.0556H14.3333V17.8334H16.2777V17.4445ZM12.2943 9.26615C12.3252 9.2739 12.3569 9.27782 12.3888 9.27782H15.111V10.0556H12.4366L9.66658 9.36299V8.60932L12.2943 9.26615ZM8.11103 1.11115C7.68147 1.11115 7.33325 1.45937 7.33325 1.88893V3.44449H8.49992V2.66671C8.49992 2.45193 8.67403 2.27782 8.88881 2.27782H10.4444V1.88893C10.4444 1.45937 10.0961 1.11115 9.66658 1.11115H8.11103ZM8.88881 4.22226C9.10359 4.22226 9.2777 4.04815 9.2777 3.83337V3.0556H10.4444V3.93293L7.33325 4.86626V4.22226H8.88881ZM10.4444 6.5556V4.74493L7.33325 5.67826V6.5556H10.4444ZM10.4444 7.33337V8.00187L9.3722 7.73393C9.256 7.70482 9.13288 7.73089 9.03845 7.80458C8.94401 7.87827 8.88881 7.99137 8.88881 8.11115V9.66671C8.88881 9.84508 9.01017 10.0006 9.1832 10.0439L10.4444 10.3593V11.6112H7.33325V7.33337H10.4444ZM15.111 16.2778V12.3889H7.33325V13.1667H13.9444C14.1591 13.1667 14.3333 13.3408 14.3333 13.5556V16.2778H15.111ZM4.99992 10.4445C4.99992 10.6593 4.82581 10.8334 4.61103 10.8334H1.66092L2.16375 10.3305C2.31557 10.1787 2.31557 9.93251 2.16375 9.78065L1.66092 9.27782H4.99992V10.4445ZM4.22214 7.33337V8.50004H6.55547V6.94449H4.61103C4.39625 6.94449 4.22214 7.1186 4.22214 7.33337ZM7.72214 22.8889C6.64879 22.8876 5.77898 22.0178 5.7777 20.9445H6.55547C6.55547 21.5888 7.07781 22.1112 7.72214 22.1112C8.36647 22.1112 8.88881 21.5888 8.88881 20.9445H9.66659C9.6653 22.0178 8.7955 22.8876 7.72214 22.8889ZM7.72214 21.3334C7.93692 21.3334 8.11103 21.1593 8.11103 20.9445H7.33325C7.33325 21.1593 7.50736 21.3334 7.72214 21.3334ZM10.4444 20.1667H4.99992V16.2778C4.99992 16.063 5.17403 15.8889 5.38881 15.8889H10.0555C10.2703 15.8889 10.4444 16.063 10.4444 16.2778V20.1667ZM11.2221 20.1667H11.9999V15.8889C11.9986 14.8156 11.1288 13.9458 10.0555 13.9445H5.38881C4.31545 13.9458 3.44565 14.8156 3.44436 15.8889V20.1667H4.22214V16.2778C4.22214 15.6335 4.74448 15.1112 5.38881 15.1112H10.0555C10.6998 15.1112 11.2221 15.6335 11.2221 16.2778V20.1667ZM11.9571 13.9445H13.5555V17.8334H12.7777V15.8889C12.7778 15.1566 12.4819 14.4553 11.9571 13.9445ZM12.7777 18.6112V20.1667H18.2221V18.6112H12.7777ZM20.1666 22.8889C19.0932 22.8876 18.2234 22.0178 18.2221 20.9445H18.9999C18.9999 21.5888 19.5223 22.1112 20.1666 22.1112C20.8109 22.1112 21.3333 21.5888 21.3333 20.9445H22.111C22.1097 22.0178 21.2399 22.8876 20.1666 22.8889ZM20.1666 21.3334C20.3814 21.3334 20.5555 21.1593 20.5555 20.9445H19.7777C19.7777 21.1593 19.9518 21.3334 20.1666 21.3334ZM18.9999 20.1667V17.4445H19.7777V16.6667H18.9999V10.8334H20.6333L22.7869 20.1667H18.9999ZM21.3333 16.6667H20.5555V17.4445H21.3333V16.6667ZM5.7777 16.6667H6.55547V17.4445H5.7777V16.6667ZM8.11103 16.6667H7.33325V17.4445H8.11103V16.6667ZM8.88881 16.6667H9.66658V17.4445H8.88881V16.6667ZM17.0555 9.27782C17.2703 9.27782 17.4444 9.45193 17.4444 9.66671C17.4444 9.88148 17.2703 10.0556 17.0555 10.0556C16.8407 10.0556 16.6666 9.88148 16.6666 9.66671C16.6666 9.45193 16.8407 9.27782 17.0555 9.27782ZM0.333252 3.0556H5.38881V3.83337H0.333252V3.0556ZM5.7777 4.61115H1.11103V5.38893H5.7777V4.61115Z" fill="#495567"/>
</svg>
